#!OML:ASF E:\motion texture\Top Level 1\Subject 1\Session 1\male.ASF
:FULLY-SPECIFIED
:DEGREES
393
root -22.1197 18.0274 4.36632 97.0811 -81.5018 -92.0341
lowerback -0.755859 1.28652 6.22855
upperback -1.57265 1.60413 5.10612
thorax -1.1696 0.693905 1.77121
lowerneck -17.9448 1.04768 -1.67848
upperneck 21.5193 1.34636 1.81462
head 9.764 0.637679 1.08545
rclavicle 5.31749e-015 3.4191e-014
rhumerus -18.0256 7.54182 -86.3248
rradius 34.4642
rwrist 10.1486
rhand -18.1955 -28.9922
rfingers 7.12502
rthumb 8.08165 -58.8177
lclavicle 5.31749e-015 3.4191e-014
lhumerus -28.6338 -9.04628 95.7584
lradius 46.3981
lwrist -23.569
lhand -11.9879 17.9009
lfingers 7.12502
lthumb 14.0687 47.4047
rfemur -9.45689 3.75954 34.1861
rtibia 16.9201
rfoot -7.49046 -10.5527
rtoes 16.0738
lfemur -26.5827 4.0507 -6.60492
ltibia 54.8369
lfoot 1.31807 -0.520456
ltoes -16.7572
394
root -22.2875 18.03 4.36495 98.8455 -81.3536 -93.7358
lowerback -0.83232 1.5002 6.46251
upperback -1.63367 1.88488 5.016
thorax -1.17552 0.829771 1.54998
lowerneck -18.0272 1.03997 -1.69081
upperneck 21.5307 1.33451 1.84618
head 9.78325 0.635692 1.09795
rclavicle -2.45996e-015 3.4191e-014
rhumerus -17.5498 8.63284 -86.3934
rradius 35.788
rwrist 9.99391
rhand -18.1619 -29.0075
rfingers 7.12502
rthumb 8.11411 -58.8318
lclavicle -2.45996e-015 3.4191e-014
lhumerus -29.235 -8.09372 95.6064
lradius 45.8917
lwrist -23.2917
lhand -11.7422 18.0376
lfingers 7.12502
lthumb 14.3055 47.5248
rfemur -8.72158 3.85981 34.3973
rtibia 16.6257
rfoot -7.83476 -10.4748
rtoes 15.7048
lfemur -27.264 4.16167 -6.42223
ltibia 53.877
lfoot 0.704797 0.00620478
ltoes -16.4292
395
root -22.4552 18.0312 4.36413 100.575 -81.2076 -95.3909
lowerback -0.91235 1.7123 6.68691
upperback -1.69772 2.16316 4.92093
thorax -1.17976 0.964354 1.32988
lowerneck -18.1137 1.03017 -1.70667
upperneck 21.5405 1.32068 1.87876
head 9.80269 0.632682 1.11117
rclavicle 3.35449e-015 3.4191e-014
rhumerus -17.082 9.62913 -86.4077
rradius 37.1351
rwrist 9.86721
rhand -18.1272 -29.0267
rfingers 7.12502
rthumb 8.14761 -58.8496
lclavicle 3.35449e-015 3.4191e-014
lhumerus -29.8308 -7.07926 95.3815
lradius 45.402
lwrist -22.97
lhand -11.4977 18.2228
lfingers 7.12502
lthumb 14.541 47.6932
rfemur -8.01093 3.95608 34.5896
rtibia 16.3509
rfoot -8.17719 -10.3976
rtoes 15.3122
lfemur -27.8999 4.25973 -6.24747
ltibia 52.7809
lfoot 0.103932 0.516824
ltoes -16.0935
396
root -22.6227 18.0308 4.36383 102.264 -81.0646 -96.9951
lowerback -0.993054 1.92201 6.90087
upperback -1.76635 2.43832 4.82118
thorax -1.18575 1.09724 1.11161
lowerneck -18.2018 1.01867 -1.72498
upperneck 21.5489 1.3052 1.91158
head 9.82199 0.628766 1.12466
rclavicle 2.20651e-014 1.03368e-014
rhumerus -16.6256 10.5345 -86.3742
rradius 38.5026
rwrist 9.76313
rhand -18.091 -29.0487
rfingers 7.12502
rthumb 8.18248 -58.8703
lclavicle 2.20651e-014 1.03368e-014
lhumerus -30.4274 -6.01019 95.0846
lradius 44.9372
lwrist -22.6056
lhand -11.2517 18.4649
lfingers 7.12502
lthumb 14.778 47.9181
rfemur -7.32586 4.04872 34.7629
rtibia 16.0993
rfoot -8.51929 -10.3222
rtoes 14.8937
lfemur -28.4911 4.342 -6.08004
ltibia 51.5591
lfoot -0.470759 1.00601
ltoes -15.7466
397
root -22.7903 18.0288 4.36408 103.911 -80.9267 -98.5464
lowerback -1.07655 2.1288 7.10178
upperback -1.83782 2.70931 4.7171
thorax -1.1908 1.22805 0.897017
lowerneck -18.2908 1.00565 -1.7464
upperneck 21.555 1.28854 1.9447
head 9.84063 0.624127 1.1386
rclavicle -1.47225e-014 -4.37326e-014
rhumerus -16.1779 11.3509 -86.2981
rradius 39.8844
rwrist 9.67751
rhand -18.0565 -29.0701
rfingers 7.12502
rthumb 8.21578 -58.8904
lclavicle -1.47225e-014 -4.37326e-014
lhumerus -31.0241 -4.89698 94.7182
lradius 44.5017
lwrist -22.1967
lhand -11.008 18.7678
lfingers 7.12502
lthumb 15.0128 48.2036
rfemur -6.66573 4.13838 34.915
rtibia 15.8725
rfoot -8.8616 -10.2498
rtoes 14.4492
lfemur -29.0378 4.40506 -5.92147
ltibia 50.2233
lfoot -1.01078 1.46843
ltoes -15.408
398
root -22.9579 18.0252 4.36488 105.503 -80.793 -100.036
lowerback -1.16082 2.33188 7.29156
upperback -1.91217 2.97532 4.6092
thorax -1.19623 1.35631 0.685486
lowerneck -18.3801 0.991348 -1.77152
upperneck 21.559 1.27096 1.97894
head 9.85858 0.618925 1.1534
rclavicle -3.37685e-014 -7.4743e-014
rhumerus -15.741 12.0842 -86.1854
rradius 41.2776
rwrist 9.60354
rhand -18.0248 -29.0931
rfingers 7.12502
rthumb 8.24638 -58.9121
lclavicle -3.37685e-014 -7.4743e-014
lhumerus -31.6233 -3.74597 94.2841
lradius 44.0997
lwrist -21.7499
lhand -10.7717 19.1268
lfingers 7.12502
lthumb 15.2404 48.5454
rfemur -6.03016 4.22411 35.0481
rtibia 15.6729
rfoot -9.20383 -10.1816
rtoes 13.9726
lfemur -29.5401 4.44575 -5.76924
ltibia 48.7876
lfoot -1.51052 1.89262
ltoes -15.0921
399
root -23.1256 18.0199 4.36617 107.032 -80.6612 -101.454
lowerback -1.24667 2.53114 7.47255
upperback -1.98781 3.23593 4.49895
thorax -1.20011 1.48184 0.477273
lowerneck -18.4721 0.975603 -1.79837
upperneck 21.5615 1.2522 2.01246
head 9.87653 0.612998 1.16809
rclavicle -2.60035e-014 -8.34896e-014
rhumerus -15.3156 12.7334 -86.0406
rradius 42.6812
rwrist 9.54102
rhand -17.9959 -29.1153
rfingers 7.12502
rthumb 8.27432 -58.9332
lclavicle -2.60035e-014 -8.34896e-014
lhumerus -32.2236 -2.56751 93.7856
lradius 43.7332
lwrist -21.2688
lhand -10.537 19.5408
lfingers 7.12502
lthumb 15.4665 48.9421
rfemur -5.41925 4.30647 35.1663
rtibia 15.5034
rfoot -9.5462 -10.1187
rtoes 13.4608
lfemur -29.9984 4.46163 -5.61859
ltibia 47.2662
lfoot -1.96261 2.27553
ltoes -14.8007
400
root -23.2936 18.013 4.36803 108.476 -80.5316 -102.783
lowerback -1.3324 2.72478 7.64605
upperback -2.06439 3.4889 4.38686
thorax -1.20328 1.60351 0.272097
lowerneck -18.5652 0.958786 -1.82901
upperneck 21.5625 1.23272 2.04776
head 9.89413 0.606666 1.18394
rclavicle 6.83322e-016 7.39479e-014
rhumerus -14.9033 13.3033 -85.8701
rradius 44.0904
rwrist 9.4863
rhand -17.975 -29.1314
rfingers 7.12502
rthumb 8.29446 -58.9485
lclavicle 6.83322e-016 7.39479e-014
lhumerus -32.8276 -1.36948 93.2256
lradius 43.4062
lwrist -20.7578
lhand -10.3034 20.0076
lfingers 7.12502
lthumb 15.6915 49.3913
rfemur -4.83018 4.38319 35.2707
rtibia 15.3649
rfoot -9.88788 -10.0621
rtoes 12.9089
lfemur -30.4119 4.44748 -5.46871
ltibia 45.6749
lfoot -2.36186 2.62127
ltoes -14.5401
401
root -23.462 18.0045 4.37041 109.844 -80.3995 -104.033
lowerback -1.41758 2.9138 7.81612
upperback -2.14128 3.73546 4.2753
thorax -1.20533 1.72187 0.0701209
lowerneck -18.6568 0.940928 -1.86273
upperneck 21.5611 1.21264 2.08348
head 9.91061 0.599879 1.20032
rclavicle 1.20513e-015 -1.90833e-014
rhumerus -14.5064 13.7989 -85.678
rradius 45.5021
rwrist 9.4349
rhand -17.9555 -29.1483
rfingers 7.12502
rthumb 8.31326 -58.9647
lclavicle 1.20513e-015 -1.90833e-014
lhumerus -33.4365 -0.161195 92.6095
lradius 43.1202
lwrist -20.2186
lhand -10.0798 20.5253
lfingers 7.12502
lthumb 15.9068 49.8921
rfemur -4.26347 4.4561 35.3679
rtibia 15.2629
rfoot -10.2299 -10.0111
rtoes 12.3159
lfemur -30.7794 4.40405 -5.31204
ltibia 44.029
lfoot -2.70658 2.93506
ltoes -14.3226
402
root -23.6308 17.9945 4.37327 111.125 -80.2673 -105.194
lowerback -1.50249 3.09756 7.98052
upperback -2.2171 3.97468 4.16467
thorax -1.20506 1.83658 -0.126995
lowerneck -18.7496 0.92192 -1.89976
upperneck 21.5582 1.19196 2.11961
head 9.92681 0.592627 1.21731
rclavicle 3.30324e-014 1.86858e-014
rhumerus -14.1252 14.2243 -85.4678
rradius 46.914
rwrist 9.38371
rhand -17.9439 -29.1618
rfingers 7.12502
rthumb 8.32444 -58.9778
lclavicle 3.30324e-014 1.86858e-014
lhumerus -34.0482 1.04834 91.943
lradius 42.8755
lwrist -19.6586
lhand -9.86765 21.0905
lfingers 7.12502
lthumb 16.1111 50.4408
rfemur -3.71881 4.52618 35.4571
rtibia 15.199
rfoot -10.571 -9.96863
rtoes 11.6783
lfemur -31.1033 4.32882 -5.14995
ltibia 42.346
lfoot -2.98804 3.21878
ltoes -14.1586
403
root -23.8001 17.983 4.3766 112.293 -80.1374 -106.24
lowerback -1.58656 3.27442 8.13866
upperback -2.29293 4.20454 4.05547
thorax -1.2043 1.94659 -0.318586
lowerneck -18.8414 0.901638 -1.93958
upperneck 21.5542 1.17044 2.1555
head 9.94243 0.584733 1.23453
rclavicle 3.31163e-014 2.26615e-014
rhumerus -13.7624 14.5856 -85.2439
rradius 48.3204
rwrist 9.32765
rhand -17.9375 -29.1726
rfingers 7.12502
rthumb 8.33065 -58.9883
lclavicle 3.31163e-014 2.26615e-014
lhumerus -34.6629 2.25021 91.232
lradius 42.6702
lwrist -19.0827
lhand -9.66667 21.7001
lfingers 7.12502
lthumb 16.3046 51.0346
rfemur -3.19822 4.5905 35.5382
rtibia 15.1758
rfoot -10.9101 -9.93653
rtoes 10.9959
lfemur -31.3892 4.21567 -4.98246
ltibia 40.6422
lfoot -3.1991 3.48356
ltoes -14.0237
404
root -23.97 17.9701 4.38038 113.368 -80.0119 -107.195
lowerback -1.67015 3.44514 8.28802
upperback -2.36711 4.42598 3.94748
thorax -1.20143 2.05252 -0.503467
lowerneck -18.932 0.8804 -1.98284
upperneck 21.549 1.14836 2.19257
head 9.95738 0.57645 1.25263
rclavicle 4.23411e-014 3.77691e-014
rhumerus -13.4199 14.8829 -85.0102
rradius 49.7215
rwrist 9.27049
rhand -17.9371 -29.1827
rfingers 7.12502
rthumb 8.33102 -58.9985
lclavicle 4.23411e-014 3.77691e-014
lhumerus -35.2789 3.43678 90.482
lradius 42.5028
lwrist -18.4999
lhand -9.48179 22.3446
lfingers 7.12502
lthumb 16.4826 51.6645
rfemur -2.70074 4.65164 35.6095
rtibia 15.1965
rfoot -11.2454 -9.91418
rtoes 10.2663
lfemur -31.6362 4.06492 -4.81135
ltibia 38.9307
lfoot -3.34748 3.73895
ltoes -13.9267
405
root -24.1405 17.9559 4.38456 114.359 -79.894 -108.066
lowerback -1.75282 3.60953 8.42454
upperback -2.43994 4.63895 3.84065
thorax -1.19752 2.15443 -0.6796
lowerneck -19.0181 0.858047 -2.02798
upperneck 21.5424 1.12544 2.22882
head 9.97103 0.567509 1.27058
rclavicle 1.82897e-014 5.48646e-014
rhumerus -13.1002 15.1227 -84.7699
rradius 51.1117
rwrist 9.20831
rhand -17.9414 -29.1924
rfingers 7.12502
rthumb 8.32688 -59.0083
lclavicle 1.82897e-014 5.48646e-014
lhumerus -35.8965 4.60112 89.6997
lradius 42.3712
lwrist -17.9186
lhand -9.31633 23.0177
lfingers 7.12502
lthumb 16.6419 52.3243
rfemur -2.22741 4.70825 35.6686
rtibia 15.2662
rfoot -11.5753 -9.90251
rtoes 9.48432
lfemur -31.8457 3.87672 -4.63973
ltibia 37.226
lfoot -3.44194 3.98116
ltoes -13.8502
406
root -24.3116 17.9407 4.38911 115.264 -79.7868 -108.853
lowerback -1.83424 3.76685 8.54564
upperback -2.51058 4.84255 3.73491
thorax -1.19237 2.25197 -0.84576
lowerneck -19.1029 0.834433 -2.07657
upperneck 21.5352 1.10148 2.26642
head 9.98423 0.557968 1.28941
rclavicle -2.54926e-014 2.26615e-014
rhumerus -12.8035 15.3064 -84.5268
rradius 52.4884
rwrist 9.14329
rhand -17.9544 -29.2044
rfingers 7.12502
rthumb 8.31438 -59.0208
lclavicle -2.54926e-014 2.26615e-014
lhumerus -36.5108 5.73695 88.8913
lradius 42.2715
lwrist -17.3455
lhand -9.17116 23.7131
lfingers 7.12502
lthumb 16.7817 53.0078
rfemur -1.78165 4.75935 35.7132
rtibia 15.3888
rfoot -11.896 -9.90196
rtoes 8.64879
lfemur -32.0229 3.65096 -4.47013
ltibia 35.5449
lfoot -3.4863 4.20899
ltoes -13.7725
